# Blender v2.80 (sub 75) OBJ File: 'lilguy.blend'
# www.blender.org
mtllib lilguy.mtl
o Cube.014_Cube.033
v -0.668047 2.191947 -0.703289
v -0.668047 2.391947 -0.703289
v -0.668047 2.191947 -0.903289
v -0.668047 2.391947 -0.903289
v -0.868047 2.191947 -0.703289
v -0.868047 2.391947 -0.703289
v -0.868047 2.191947 -0.903289
v -0.868047 2.391947 -0.903289
v -0.668047 2.591947 -0.703289
v -0.668047 2.591947 -0.903289
v -0.868047 2.591947 -0.903289
v -0.868047 2.591947 -0.703289
v -0.668047 2.391947 -1.103289
v -0.868047 2.391947 -1.103289
v -0.668047 2.591947 -1.103289
v -0.868047 2.591947 -1.103289
v -1.068047 2.391947 -0.903289
v -1.068047 2.591947 -0.903289
v -1.068047 2.391947 -1.103289
v -1.068047 2.591947 -1.103289
v -0.868047 2.791947 -0.903289
v -0.868047 2.791947 -1.103289
v -1.068047 2.791947 -0.903289
v -1.068047 2.791947 -1.103289
v -0.868047 2.991947 -0.903289
v -0.868047 2.991947 -1.103289
v -1.068047 2.991947 -0.903289
v -1.068047 2.991947 -1.103289
v -1.068047 2.791947 -1.303289
v -0.868047 2.791947 -1.303289
v -1.068047 2.991947 -1.303289
v -0.868047 2.991947 -1.303289
v -0.668047 2.991947 -1.103289
v -0.668047 2.791947 -1.103289
v -0.668047 2.991947 -1.303289
v -0.668047 2.791947 -1.303289
v -0.468047 2.991947 -1.103289
v -0.468047 2.791947 -1.103289
v -0.468047 2.991947 -1.303289
v -0.468047 2.791947 -1.303289
v -0.668047 3.191947 -1.303289
v -0.668047 3.191947 -1.103289
v -0.468047 3.191947 -1.303289
v -0.468047 3.191947 -1.103289
v -0.468047 2.991947 -0.903289
v -0.668047 2.991947 -0.903289
v -0.468047 3.191947 -0.903289
v -0.668047 3.191947 -0.903289
v -0.468047 2.991947 -0.703289
v -0.668047 2.991947 -0.703289
v -0.468047 3.191947 -0.703289
v -0.668047 3.191947 -0.703289
v -0.468047 3.391947 -0.903289
v -0.668047 3.391947 -0.903289
v -0.468047 3.391947 -0.703289
v -0.668047 3.391947 -0.703289
v 0.662492 2.191947 -0.703289
v 0.662492 2.391947 -0.703289
v 0.662492 2.191947 -0.903289
v 0.662492 2.391947 -0.903289
v 0.862492 2.191947 -0.703289
v 0.862492 2.391947 -0.703289
v 0.862492 2.191947 -0.903289
v 0.862492 2.391947 -0.903289
v 0.662492 2.591947 -0.703289
v 0.662492 2.591947 -0.903289
v 0.862492 2.591947 -0.903289
v 0.862492 2.591947 -0.703289
v 0.662492 2.391947 -1.103289
v 0.862492 2.391947 -1.103289
v 0.662492 2.591947 -1.103289
v 0.862492 2.591947 -1.103289
v 1.062492 2.391947 -0.903289
v 1.062492 2.591947 -0.903289
v 1.062492 2.391947 -1.103289
v 1.062492 2.591947 -1.103289
v 0.862492 2.791947 -0.903289
v 0.862492 2.791947 -1.103289
v 1.062492 2.791947 -0.903289
v 1.062492 2.791947 -1.103289
v 0.862492 2.991947 -0.903289
v 0.862492 2.991947 -1.103289
v 1.062492 2.991947 -0.903289
v 1.062492 2.991947 -1.103289
v 1.062492 2.791947 -1.303289
v 0.862492 2.791947 -1.303289
v 1.062492 2.991947 -1.303289
v 0.862492 2.991947 -1.303289
v 0.662492 2.991947 -1.103289
v 0.662492 2.791947 -1.103289
v 0.662492 2.991947 -1.303289
v 0.662492 2.791947 -1.303289
v 0.462492 2.991947 -1.103289
v 0.462492 2.791947 -1.103289
v 0.462492 2.991947 -1.303289
v 0.462492 2.791947 -1.303289
v 0.662492 3.191947 -1.303289
v 0.662492 3.191947 -1.103289
v 0.462492 3.191947 -1.303289
v 0.462492 3.191947 -1.103289
v 0.462492 2.991947 -0.903289
v 0.662492 2.991947 -0.903289
v 0.462492 3.191947 -0.903289
v 0.662492 3.191947 -0.903289
v 0.462492 2.991947 -0.703289
v 0.662492 2.991947 -0.703289
v 0.462492 3.191947 -0.703289
v 0.662492 3.191947 -0.703289
v 0.462492 3.391947 -0.903289
v 0.662492 3.391947 -0.903289
v 0.462492 3.391947 -0.703289
v 0.662492 3.391947 -0.703289
vn 1.0000 0.0000 0.0000
vn 0.0000 0.0000 -1.0000
vn -1.0000 0.0000 0.0000
vn 0.0000 0.0000 1.0000
vn 0.0000 -1.0000 0.0000
vn 0.0000 1.0000 0.0000
usemtl Material.024
s off
f 1//1 3//1 4//1 2//1
f 3//2 7//2 8//2 4//2
f 7//3 5//3 6//3 8//3
f 5//4 1//4 2//4 6//4
f 3//5 1//5 5//5 7//5
f 6//3 12//3 11//3 8//3
f 11//6 12//6 9//6 10//6
f 4//1 10//1 9//1 2//1
f 2//4 9//4 12//4 6//4
f 4//1 13//1 15//1 10//1
f 14//2 16//2 15//2 13//2
f 10//6 15//6 16//6 11//6
f 8//5 14//5 13//5 4//5
f 11//4 21//4 23//4 18//4
f 18//3 20//3 19//3 17//3
f 14//2 19//2 20//2 16//2
f 11//4 18//4 17//4 8//4
f 8//5 17//5 19//5 14//5
f 22//1 26//1 25//1 21//1
f 18//3 23//3 24//3 20//3
f 16//1 22//1 21//1 11//1
f 20//2 24//2 22//2 16//2
f 26//6 28//6 27//6 25//6
f 26//6 32//6 31//6 28//6
f 23//3 27//3 28//3 24//3
f 21//4 25//4 27//4 23//4
f 29//2 31//2 32//2 30//2
f 24//5 29//5 30//5 22//5
f 28//3 31//3 29//3 24//3
f 30//5 36//5 34//5 22//5
f 36//5 40//5 38//5 34//5
f 32//2 35//2 36//2 30//2
f 26//6 33//6 35//6 32//6
f 22//4 34//4 33//4 26//4
f 38//1 40//1 39//1 37//1
f 35//2 39//2 40//2 36//2
f 35//2 41//2 43//2 39//2
f 34//4 38//4 37//4 33//4
f 42//6 44//6 43//6 41//6
f 39//1 43//1 44//1 37//1
f 33//3 46//3 48//3 42//3
f 33//3 42//3 41//3 35//3
f 46//3 50//3 52//3 48//3
f 42//6 48//6 47//6 44//6
f 37//5 45//5 46//5 33//5
f 44//1 47//1 45//1 37//1
f 49//4 51//4 52//4 50//4
f 47//1 53//1 55//1 51//1
f 47//1 51//1 49//1 45//1
f 45//5 49//5 50//5 46//5
f 54//6 56//6 55//6 53//6
f 48//2 54//2 53//2 47//2
f 52//3 56//3 54//3 48//3
f 51//4 55//4 56//4 52//4
f 57//1 59//1 60//1 58//1
f 59//4 63//4 64//4 60//4
f 63//3 61//3 62//3 64//3
f 61//2 57//2 58//2 62//2
f 59//6 57//6 61//6 63//6
f 62//3 68//3 67//3 64//3
f 67//5 68//5 65//5 66//5
f 60//1 66//1 65//1 58//1
f 58//2 65//2 68//2 62//2
f 60//1 69//1 71//1 66//1
f 70//4 72//4 71//4 69//4
f 66//5 71//5 72//5 67//5
f 64//6 70//6 69//6 60//6
f 67//2 77//2 79//2 74//2
f 74//3 76//3 75//3 73//3
f 70//4 75//4 76//4 72//4
f 67//2 74//2 73//2 64//2
f 64//6 73//6 75//6 70//6
f 78//1 82//1 81//1 77//1
f 74//3 79//3 80//3 76//3
f 72//1 78//1 77//1 67//1
f 76//4 80//4 78//4 72//4
f 82//5 84//5 83//5 81//5
f 82//5 88//5 87//5 84//5
f 79//3 83//3 84//3 80//3
f 77//2 81//2 83//2 79//2
f 85//4 87//4 88//4 86//4
f 80//6 85//6 86//6 78//6
f 84//3 87//3 85//3 80//3
f 86//6 92//6 90//6 78//6
f 92//6 96//6 94//6 90//6
f 88//4 91//4 92//4 86//4
f 82//5 89//5 91//5 88//5
f 78//2 90//2 89//2 82//2
f 94//1 96//1 95//1 93//1
f 91//4 95//4 96//4 92//4
f 91//4 97//4 99//4 95//4
f 90//2 94//2 93//2 89//2
f 98//5 100//5 99//5 97//5
f 95//1 99//1 100//1 93//1
f 89//3 102//3 104//3 98//3
f 89//3 98//3 97//3 91//3
f 102//3 106//3 108//3 104//3
f 98//5 104//5 103//5 100//5
f 93//6 101//6 102//6 89//6
f 100//1 103//1 101//1 93//1
f 105//2 107//2 108//2 106//2
f 103//1 109//1 111//1 107//1
f 103//1 107//1 105//1 101//1
f 101//6 105//6 106//6 102//6
f 110//5 112//5 111//5 109//5
f 104//4 110//4 109//4 103//4
f 108//3 112//3 110//3 104//3
f 107//2 111//2 112//2 108//2
o Cube_Cube.002
v -0.880000 0.496659 0.880000
v -0.880000 2.256659 0.880000
v -0.880000 2.256659 -0.880000
v -0.880000 0.496659 -0.880000
v 0.880000 0.496659 -0.880000
v 0.880000 0.496659 0.880000
v 0.880000 2.256659 0.880000
v 0.880000 2.256659 -0.880000
v -0.440000 1.816659 -0.880000
v -0.440000 0.936659 -0.880000
v 0.440000 1.816659 -0.880000
v 0.440000 0.936659 -0.880000
v -0.440000 1.816659 -0.794761
v -0.440000 0.936659 -0.794761
v 0.440000 0.936659 -0.794761
v 0.440000 1.816659 -0.794761
v -0.163130 1.552659 -0.853742
v -0.163130 1.200659 -0.853742
v 0.150887 1.200659 -0.853742
v 0.150887 1.552659 -0.853742
v -0.700064 -0.416733 0.284426
v -0.700064 0.783267 0.284426
v -0.700064 -0.416733 -0.115574
v -0.700064 0.783267 -0.115574
v -0.300064 -0.416733 0.284426
v -0.300065 0.783267 0.284426
v -0.300064 -0.416733 -0.115574
v -0.300065 0.783267 -0.115574
v 0.354657 -0.418997 0.284426
v 0.354657 0.781003 0.284426
v 0.354657 -0.418997 -0.115574
v 0.354657 0.781003 -0.115574
v 0.754657 -0.418997 0.284426
v 0.754657 0.781003 0.284426
v 0.754657 -0.418997 -0.115574
v 0.754657 0.781003 -0.115574
vn -1.0000 0.0000 0.0000
vn 0.0000 -1.0000 0.0000
vn 0.0000 0.0000 1.0000
vn 0.0000 1.0000 0.0000
vn -0.0000 0.0000 -1.0000
vn 1.0000 0.0000 0.0000
usemtl Material.001
s off
f 113//7 114//7 115//7 116//7
f 116//8 117//8 118//8 113//8
f 118//9 119//9 114//9 113//9
f 120//10 115//10 114//10 119//10
f 121//11 122//11 116//11 115//11 120//11 123//11
f 122//11 124//11 123//11 120//11 117//11 116//11
f 117//12 120//12 119//12 118//12
f 122//12 121//12 125//12 126//12
f 124//10 122//10 126//10 127//10
f 121//8 123//8 128//8 125//8
f 123//7 124//7 127//7 128//7
f 133//7 134//7 136//7 135//7
f 135//11 136//11 140//11 139//11
f 139//12 140//12 138//12 137//12
f 137//9 138//9 134//9 133//9
f 135//8 139//8 137//8 133//8
f 140//10 136//10 134//10 138//10
f 141//7 142//7 144//7 143//7
f 143//11 144//11 148//11 147//11
f 147//12 148//12 146//12 145//12
f 145//9 146//9 142//9 141//9
f 143//8 147//8 145//8 141//8
f 148//10 144//10 142//10 146//10
usemtl Material.002
f 127//11 126//11 125//11 128//11
usemtl Material.003
f 131//11 130//11 129//11 132//11
o Plane
v -0.529091 1.553822 -0.888737
v 0.470909 1.553822 -0.888737
v -0.529091 1.832376 -0.888737
v 0.470909 1.832376 -0.888737
vn 0.0000 0.0000 1.0000
usemtl Material.003
s off
f 149//13 150//13 152//13 151//13
o Cube.001_Cube.006
v -0.896587 0.477944 0.911229
v -0.896587 2.277944 0.911229
v -0.896586 0.477944 -0.888771
v -0.896587 2.277944 -0.888771
v 0.903413 0.477944 0.911229
v 0.903413 2.277944 0.911229
v 0.903413 0.477944 -0.888771
v 0.903413 2.277944 -0.888771
vn -1.0000 -0.0000 -0.0000
vn 1.0000 0.0000 0.0000
vn 0.0000 0.0000 1.0000
vn 0.0000 1.0000 0.0000
usemtl Material.004
s off
f 153//14 154//14 156//14 155//14
f 159//15 160//15 158//15 157//15
f 157//16 158//16 154//16 153//16
f 160//17 156//17 154//17 158//17
