mtllib tree.mtl
o Leaf
v -0.400000 -0.400000 3.000264
v -0.400000 0.400000 3.000264
v -0.400000 -0.400000 2.200264
v -0.400000 0.400000 2.200264
v 0.400000 -0.400000 3.000264
v 0.400000 0.400000 3.000264
v 0.400000 -0.400000 2.200264
v 0.400000 0.400000 2.200264
vn -1.0000 0.0000 0.0000
vn 0.0000 0.0000 -1.0000
vn 1.0000 0.0000 0.0000
vn 0.0000 0.0000 1.0000
vn 0.0000 -1.0000 0.0000
vn 0.0000 1.0000 0.0000
usemtl None
s off
f 1//1 2//1 4//1 3//1
f 3//2 4//2 8//2 7//2
f 7//3 8//3 6//3 5//3
f 5//4 6//4 2//4 1//4
f 3//5 7//5 5//5 1//5
f 8//6 4//6 2//6 6//6
o Branch
v 1.474447 -0.200000 0.200000
v 1.474447 0.200000 0.200000
v 1.474447 -0.200000 -0.200000
v 1.474447 0.200000 -0.200000
v 2.128403 -0.200000 0.200000
v 2.128403 0.200000 0.200000
v 2.128403 -0.200000 -0.200000
v 2.128403 0.200000 -0.200000
v 2.129403 0.120000 -0.120000
v 2.129403 -0.120000 -0.120000
v 2.129403 -0.120000 0.120000
v 2.129403 0.120000 0.120000
v 3.129403 0.120000 -0.120000
v 3.129403 -0.120000 -0.120000
v 3.129403 -0.120000 0.120000
v 3.129403 0.120000 0.120000
v 3.329403 0.120000 -0.120000
v 3.329403 -0.120000 -0.120000
v 3.329403 -0.120000 0.120000
v 3.329403 0.120000 0.120000
v 3.129403 1.120000 -0.120000
v 3.129403 1.120000 0.120000
v 3.329403 1.120000 -0.120000
v 3.329403 1.120000 0.120000
vn -1.0000 0.0000 0.0000
vn 0.0000 0.0000 -1.0000
vn 0.9999 0.0125 0.0000
vn 0.0000 0.0000 1.0000
vn 0.0000 -1.0000 0.0000
vn 0.0000 1.0000 0.0000
vn 0.9999 0.0000 -0.0125
vn 0.9999 0.0000 0.0125
vn 0.9999 -0.0125 0.0000
vn 1.0000 0.0000 0.0000
usemtl None
s off
f 9//7 10//7 12//7 11//7
f 11//8 12//8 16//8 15//8
f 16//9 14//9 20//9 17//9
f 13//10 14//10 10//10 9//10
f 11//11 15//11 13//11 9//11
f 16//12 12//12 10//12 14//12
f 20//10 19//10 23//10 24//10
f 15//13 16//13 17//13 18//13
f 14//14 13//14 19//14 20//14
f 13//15 15//15 18//15 19//15
f 28//16 25//16 31//16 32//16
f 19//11 18//11 22//11 23//11
f 17//12 20//12 24//12 21//12
f 18//8 17//8 21//8 22//8
f 26//16 25//16 28//16 27//16
f 22//8 21//8 25//8 26//8
f 24//10 23//10 27//10 28//10
f 23//11 22//11 26//11 27//11
f 29//12 30//12 32//12 31//12
f 21//7 24//7 30//7 29//7
f 25//8 21//8 29//8 31//8
f 24//10 28//10 32//10 30//10
o Stem
v 0.500000 -1.000000 -0.500000
v 0.500000 -1.000000 0.500000
v -0.500000 -1.000000 0.500000
v -0.500000 -1.000000 -0.500000
v 0.500000 3.608674 -0.500000
v 0.500000 3.608674 0.500000
v -0.500000 3.608674 0.500000
v -0.500000 3.608674 -0.500000
vn 0.0000 -1.0000 0.0000
vn 0.0000 1.0000 0.0000
vn 1.0000 0.0000 0.0000
vn -0.0000 -0.0000 1.0000
vn -1.0000 -0.0000 -0.0000
vn 0.0000 0.0000 -1.0000
usemtl Material
s off
f 33//17 34//17 35//17 36//17
f 37//18 40//18 39//18 38//18
f 33//19 37//19 38//19 34//19
f 34//20 38//20 39//20 35//20
f 35//21 39//21 40//21 36//21
f 37//22 33//22 36//22 40//22
