# Blender v2.79 (sub 0) OBJ File: 'untitled.blend'
# www.blender.org
mtllib ghostCube.mtl
o Cube
v 1.000000 -1.974556 -1.000000
v -1.000000 -1.974556 1.000000
v -1.000000 -1.974556 -1.000000
v 1.000000 1.000000 -0.999999
v 0.999999 1.000000 1.000001
v -1.000000 1.000000 1.000000
v -1.000000 1.000000 -1.000000
v 1.000000 -1.974556 -0.714286
v 1.000000 -1.974556 -0.428571
v 1.000000 -1.974556 -0.142857
v 1.000000 -1.974556 0.142857
v 0.428571 -1.974556 -1.000000
v 0.142857 -1.974556 -1.000000
v -0.142857 -1.974556 -1.000000
v -0.714285 -1.974556 -1.000000
v 1.000000 -1.549619 -1.000000
v 1.000000 -1.124683 -1.000000
v 1.000000 -0.699746 -1.000000
v 1.000000 -0.274810 -1.000000
v 1.000000 0.150127 -1.000000
v 1.000000 0.575063 -1.000000
v 0.714286 -1.974556 1.000000
v 0.428571 -1.974556 1.000000
v 0.142857 -1.974556 1.000000
v -0.142857 -1.974556 1.000000
v -0.428572 -1.974556 1.000000
v -0.714286 -1.974556 1.000000
v 1.000000 -1.124683 1.000000
v 1.000000 -0.699746 1.000000
v 1.000000 -0.274810 1.000000
v 1.000000 0.150127 1.000000
v 0.999999 0.575063 1.000000
v -1.000000 -1.974556 0.428571
v -1.000000 -1.974556 0.142857
v -1.000000 -1.974556 -0.142857
v -1.000000 -1.974556 -0.428572
v -1.000000 -1.974556 -0.714286
v -1.000000 -1.549619 1.000000
v -1.000000 -1.124683 1.000000
v -1.000000 -0.699746 1.000000
v -1.000000 -0.274810 1.000000
v -1.000000 0.150127 1.000000
v -1.000000 0.575063 1.000000
v -1.000000 -1.549619 -1.000000
v -1.000000 -1.124683 -1.000000
v -1.000000 -0.699746 -1.000000
v -1.000000 -0.274810 -1.000000
v -1.000000 0.150127 -1.000000
v -1.000000 0.575063 -1.000000
v 1.000000 1.000000 -0.714285
v 1.000000 1.000000 -0.428571
v 1.000000 1.000000 -0.142857
v 1.000000 1.000000 0.142858
v 1.000000 1.000000 0.428572
v 1.000000 1.000000 0.714286
v 0.714286 1.000000 -1.000000
v 0.428572 1.000000 -1.000000
v 0.142857 1.000000 -1.000000
v -0.142857 1.000000 -1.000000
v -0.428571 1.000000 -1.000000
v -0.714286 1.000000 -1.000000
v 0.714285 1.000000 1.000000
v 0.428571 1.000000 1.000000
v 0.142857 1.000000 1.000000
v -0.142858 1.000000 1.000000
v -0.428572 1.000000 1.000000
v -0.714286 1.000000 1.000000
v -1.000000 1.000000 0.714285
v -1.000000 1.000000 0.428571
v -1.000000 1.000000 0.142857
v -1.000000 1.000000 -0.142857
v -1.000000 1.000000 -0.428572
v -1.000000 1.000000 -0.714286
v 0.714286 0.575063 -1.000000
v 0.428572 0.575063 -1.000000
v 0.142857 0.575063 -1.000000
v -0.142857 0.575063 -1.000000
v -0.428571 0.575063 -1.000000
v -0.714286 0.575063 -1.000000
v 0.714286 0.150127 -1.000000
v 0.428572 0.150127 -1.000000
v 0.142857 0.150127 -1.000000
v -0.142857 0.150127 -1.000000
v -0.428571 0.150127 -1.000000
v -0.714286 0.150127 -1.000000
v 0.714286 -0.274810 -1.000000
v 0.428572 -0.274810 -1.000000
v 0.142857 -0.274810 -1.000000
v -0.142857 -0.274810 -1.000000
v -0.428571 -0.274810 -1.000000
v -0.714286 -0.274810 -1.000000
v 0.714286 -0.699746 -1.000000
v 0.428572 -0.699746 -1.000000
v 0.142857 -0.699746 -1.000000
v -0.142857 -0.699746 -1.000000
v -0.428571 -0.699746 -1.000000
v -0.714285 -0.699746 -1.000000
v 0.714286 -1.124683 -1.000000
v 0.428572 -1.124683 -1.000000
v 0.142857 -1.124683 -1.000000
v -0.142857 -1.124683 -1.000000
v -0.428571 -1.124683 -1.000000
v -0.714285 -1.124683 -1.000000
v 0.714286 -1.549619 -1.000000
v 0.428572 -1.549619 -1.000000
v 0.142857 -1.549619 -1.000000
v -0.142857 -1.549619 -1.000000
v -0.428571 -1.549619 -1.000000
v -0.714285 -1.549619 -1.000000
v -1.000000 -1.549619 0.714285
v -1.000000 -1.549619 0.428571
v -1.000000 -1.549619 0.142857
v -1.000000 -1.549619 -0.142857
v -1.000000 -1.549619 -0.428572
v -1.000000 -1.549619 -0.714286
v -1.000000 -1.124683 0.714285
v -1.000000 -1.124683 0.428571
v -1.000000 -1.124683 0.142857
v -1.000000 -1.124683 -0.142857
v -1.000000 -1.124683 -0.428572
v -1.000000 -1.124683 -0.714286
v -1.000000 -0.699746 0.714285
v -1.000000 -0.699746 0.428571
v -1.000000 -0.699746 0.142857
v -1.000000 -0.699746 -0.142857
v -1.000000 -0.699746 -0.428572
v -1.000000 -0.699746 -0.714286
v -1.000000 -0.274810 0.714285
v -1.000000 -0.274810 0.428571
v -1.000000 -0.274810 0.142857
v -1.000000 -0.274810 -0.142857
v -1.000000 -0.274810 -0.428572
v -1.000000 -0.274810 -0.714286
v -1.000000 0.150127 0.714285
v -1.000000 0.150127 -0.714286
v -1.000000 0.575063 0.714285
v -1.000000 0.575063 0.428571
v -1.000000 0.575063 0.142857
v -1.000000 0.575063 -0.142857
v -1.000000 0.575063 -0.428572
v -1.000000 0.575063 -0.714286
v 0.714286 -1.549619 1.000000
v 0.428571 -1.549619 1.000000
v 0.142857 -1.549619 1.000000
v -0.142857 -1.549619 1.000000
v -0.428572 -1.549619 1.000000
v -0.714286 -1.549619 1.000000
v 0.714285 -1.124683 1.000000
v 0.428571 -1.124683 1.000000
v 0.142857 -1.124683 1.000000
v -0.142857 -1.124683 1.000000
v -0.428572 -1.124683 1.000000
v -0.714286 -1.124683 1.000000
v 0.714285 -0.699746 1.000000
v 0.428571 -0.699746 1.000000
v 0.142857 -0.699746 1.000000
v -0.142857 -0.699746 1.000000
v -0.428572 -0.699746 1.000000
v -0.714286 -0.699746 1.000000
v 0.714285 -0.274810 1.000000
v 0.428571 -0.274810 1.000000
v 0.142857 -0.274810 1.000000
v -0.142857 -0.274810 1.000000
v -0.428572 -0.274810 1.000000
v -0.714286 -0.274810 1.000000
v 0.714285 0.150127 1.000000
v 0.428571 0.150127 1.000000
v -0.142857 0.150127 1.000000
v -0.428572 0.150127 1.000000
v -0.714286 0.150127 1.000000
v 0.714285 0.575063 1.000000
v 0.428571 0.575063 1.000000
v 0.142857 0.575063 1.000000
v -0.142858 0.575063 1.000000
v -0.428572 0.575063 1.000000
v -0.714286 0.575063 1.000000
v 1.000000 -1.549619 -0.714286
v 1.000000 -1.549619 -0.428571
v 1.000000 -1.549619 -0.142857
v 1.000000 -1.549619 0.142857
v 1.000000 -1.549619 0.428572
v 1.000000 -1.549619 0.714286
v 1.000000 -1.124683 -0.714285
v 1.000000 -1.124683 -0.428571
v 1.000000 -1.124683 -0.142857
v 1.000000 -1.124683 0.142857
v 1.000000 -1.124683 0.428572
v 1.000000 -1.124683 0.714286
v 1.000000 -0.699746 -0.714285
v 1.000000 -0.699746 -0.428571
v 1.000000 -0.699746 -0.142857
v 1.000000 -0.699746 0.142857
v 1.000000 -0.699746 0.428572
v 1.000000 -0.699746 0.714286
v 1.000000 -0.274810 -0.714285
v 1.000000 -0.274810 -0.428571
v 1.000000 -0.274810 -0.142857
v 1.000000 -0.274810 0.142858
v 1.000000 -0.274810 0.428572
v 1.000000 -0.274810 0.714286
v 1.000000 0.150127 -0.714285
v 1.000000 0.150127 -0.428571
v 1.000000 0.150127 -0.142857
v 1.000000 0.150127 0.142858
v 1.000000 0.150127 0.428572
v 1.000000 0.150127 0.714286
v 1.000000 0.575063 -0.714285
v 1.000000 0.575063 -0.428571
v 1.000000 0.575063 -0.142857
v 1.000000 0.575063 0.142858
v 1.000000 0.575063 0.428572
v 1.000000 0.575063 0.714286
v 0.714286 1.000000 -0.714285
v 0.714286 1.000000 -0.428571
v 0.714286 1.000000 -0.142857
v 0.714285 1.000000 0.142858
v 0.714285 1.000000 0.428572
v 0.714285 1.000000 0.714286
v 0.428572 1.000000 -0.714285
v 0.428571 1.000000 -0.428571
v 0.428571 1.000000 -0.142857
v 0.428571 1.000000 0.142858
v 0.428571 1.000000 0.428572
v 0.428571 1.000000 0.714286
v 0.142857 1.000000 -0.714285
v 0.142857 1.000000 -0.428571
v 0.142857 1.000000 -0.142857
v 0.142857 1.000000 0.142857
v 0.142857 1.000000 0.428572
v 0.142857 1.000000 0.714286
v -0.142857 1.000000 -0.714285
v -0.142857 1.000000 -0.428571
v -0.142857 1.000000 -0.142857
v -0.142857 1.000000 0.142857
v -0.142857 1.000000 0.428572
v -0.142858 1.000000 0.714286
v -0.428571 1.000000 -0.714286
v -0.428571 1.000000 -0.428571
v -0.428572 1.000000 -0.142857
v -0.428572 1.000000 0.142857
v -0.428572 1.000000 0.428571
v -0.428572 1.000000 0.714286
v -0.714286 1.000000 -0.714286
v -0.714286 1.000000 -0.428571
v -0.714286 1.000000 -0.142857
v -0.714286 1.000000 0.142857
v -0.714286 1.000000 0.428571
v -0.714286 1.000000 0.714285
vn 0.0000 1.0000 0.0000
vn 1.0000 0.0000 0.0000
vn -0.0000 -0.0000 1.0000
vn -1.0000 -0.0000 -0.0000
vn 0.0000 0.0000 -1.0000
usemtl Material
s off
f 248//1 68//1 6//1 67//1
f 212//2 55//2 5//2 32//2
f 176//3 67//3 6//3 43//3
f 141//4 73//4 7//4 49//4
f 109//5 15//5 3//5 44//5
f 61//5 79//5 49//5 7//5
f 79//5 85//5 48//5 49//5
f 85//5 91//5 47//5 48//5
f 91//5 97//5 46//5 47//5
f 97//5 103//5 45//5 46//5
f 103//5 109//5 44//5 45//5
f 4//5 21//5 74//5 56//5
f 56//5 74//5 75//5 57//5
f 57//5 75//5 76//5 58//5
f 58//5 76//5 77//5 59//5
f 59//5 77//5 78//5 60//5
f 60//5 78//5 79//5 61//5
f 21//5 20//5 80//5 74//5
f 74//5 80//5 81//5 75//5
f 75//5 81//5 82//5 76//5
f 76//5 82//5 83//5 77//5
f 77//5 83//5 84//5 78//5
f 78//5 84//5 85//5 79//5
f 20//5 19//5 86//5 80//5
f 80//5 86//5 87//5 81//5
f 81//5 87//5 88//5 82//5
f 82//5 88//5 89//5 83//5
f 83//5 89//5 90//5 84//5
f 84//5 90//5 91//5 85//5
f 19//5 18//5 92//5 86//5
f 86//5 92//5 93//5 87//5
f 87//5 93//5 94//5 88//5
f 88//5 94//5 95//5 89//5
f 89//5 95//5 96//5 90//5
f 90//5 96//5 97//5 91//5
f 18//5 17//5 98//5 92//5
f 92//5 98//5 99//5 93//5
f 93//5 99//5 100//5 94//5
f 94//5 100//5 101//5 95//5
f 95//5 101//5 102//5 96//5
f 96//5 102//5 103//5 97//5
f 17//5 16//5 104//5 98//5
f 98//5 104//5 105//5 99//5
f 100//5 106//5 107//5 101//5
f 101//5 107//5 108//5 102//5
f 105//5 12//5 13//5 106//5
f 106//5 13//5 14//5 107//5
f 121//4 127//4 46//4 45//4
f 127//4 133//4 47//4 46//4
f 133//4 135//4 48//4 47//4
f 135//4 141//4 49//4 48//4
f 33//4 111//4 112//4 34//4
f 35//4 113//4 114//4 36//4
f 36//4 114//4 115//4 37//4
f 110//4 116//4 117//4 111//4
f 111//4 117//4 118//4 112//4
f 113//4 119//4 120//4 114//4
f 39//4 40//4 122//4 116//4
f 116//4 122//4 123//4 117//4
f 117//4 123//4 124//4 118//4
f 118//4 124//4 125//4 119//4
f 119//4 125//4 126//4 120//4
f 120//4 126//4 127//4 121//4
f 40//4 41//4 128//4 122//4
f 122//4 128//4 129//4 123//4
f 123//4 129//4 130//4 124//4
f 124//4 130//4 131//4 125//4
f 125//4 131//4 132//4 126//4
f 126//4 132//4 133//4 127//4
f 41//4 42//4 134//4 128//4
f 42//4 43//4 136//4 134//4
f 43//4 6//4 68//4 136//4
f 136//4 68//4 69//4 137//4
f 137//4 69//4 70//4 138//4
f 138//4 70//4 71//4 139//4
f 139//4 71//4 72//4 140//4
f 140//4 72//4 73//4 141//4
f 27//3 147//3 38//3 2//3
f 147//3 153//3 39//3 38//3
f 153//3 159//3 40//3 39//3
f 159//3 165//3 41//3 40//3
f 165//3 170//3 42//3 41//3
f 170//3 176//3 43//3 42//3
f 22//3 142//3 143//3 23//3
f 23//3 143//3 144//3 24//3
f 25//3 145//3 146//3 26//3
f 143//3 149//3 150//3 144//3
f 145//3 151//3 152//3 146//3
f 28//3 29//3 154//3 148//3
f 148//3 154//3 155//3 149//3
f 149//3 155//3 156//3 150//3
f 150//3 156//3 157//3 151//3
f 151//3 157//3 158//3 152//3
f 152//3 158//3 159//3 153//3
f 29//3 30//3 160//3 154//3
f 154//3 160//3 161//3 155//3
f 155//3 161//3 162//3 156//3
f 156//3 162//3 163//3 157//3
f 157//3 163//3 164//3 158//3
f 30//3 31//3 166//3 160//3
f 160//3 166//3 167//3 161//3
f 164//3 169//3 170//3 165//3
f 31//3 32//3 171//3 166//3
f 168//3 174//3 175//3 169//3
f 169//3 175//3 176//3 170//3
f 32//3 5//3 62//3 171//3
f 171//3 62//3 63//3 172//3
f 173//3 64//3 65//3 174//3
f 174//3 65//3 66//3 175//3
f 175//3 66//3 67//3 176//3
f 188//2 194//2 29//2 28//2
f 194//2 200//2 30//2 29//2
f 200//2 206//2 31//2 30//2
f 206//2 212//2 32//2 31//2
f 1//2 16//2 177//2 8//2
f 9//2 178//2 179//2 10//2
f 10//2 179//2 180//2 11//2
f 177//2 183//2 184//2 178//2
f 179//2 185//2 186//2 180//2
f 181//2 187//2 188//2 182//2
f 17//2 18//2 189//2 183//2
f 183//2 189//2 190//2 184//2
f 184//2 190//2 191//2 185//2
f 185//2 191//2 192//2 186//2
f 186//2 192//2 193//2 187//2
f 187//2 193//2 194//2 188//2
f 18//2 19//2 195//2 189//2
f 190//2 196//2 197//2 191//2
f 191//2 197//2 198//2 192//2
f 192//2 198//2 199//2 193//2
f 193//2 199//2 200//2 194//2
f 19//2 20//2 201//2 195//2
f 195//2 201//2 202//2 196//2
f 198//2 204//2 205//2 199//2
f 199//2 205//2 206//2 200//2
f 20//2 21//2 207//2 201//2
f 201//2 207//2 208//2 202//2
f 202//2 208//2 209//2 203//2
f 205//2 211//2 212//2 206//2
f 21//2 4//2 50//2 207//2
f 207//2 50//2 51//2 208//2
f 208//2 51//2 52//2 209//2
f 209//2 52//2 53//2 210//2
f 210//2 53//2 54//2 211//2
f 211//2 54//2 55//2 212//2
f 55//1 218//1 62//1 5//1
f 218//1 224//1 63//1 62//1
f 224//1 230//1 64//1 63//1
f 230//1 236//1 65//1 64//1
f 236//1 242//1 66//1 65//1
f 242//1 248//1 67//1 66//1
f 4//1 56//1 213//1 50//1
f 50//1 213//1 214//1 51//1
f 51//1 214//1 215//1 52//1
f 52//1 215//1 216//1 53//1
f 53//1 216//1 217//1 54//1
f 54//1 217//1 218//1 55//1
f 56//1 57//1 219//1 213//1
f 213//1 219//1 220//1 214//1
f 214//1 220//1 221//1 215//1
f 215//1 221//1 222//1 216//1
f 216//1 222//1 223//1 217//1
f 57//1 58//1 225//1 219//1
f 219//1 225//1 226//1 220//1
f 220//1 226//1 227//1 221//1
f 221//1 227//1 228//1 222//1
f 223//1 229//1 230//1 224//1
f 58//1 59//1 231//1 225//1
f 225//1 231//1 232//1 226//1
f 228//1 234//1 235//1 229//1
f 229//1 235//1 236//1 230//1
f 59//1 60//1 237//1 231//1
f 232//1 238//1 239//1 233//1
f 233//1 239//1 240//1 234//1
f 234//1 240//1 241//1 235//1
f 235//1 241//1 242//1 236//1
f 60//1 61//1 243//1 237//1
f 237//1 243//1 244//1 238//1
f 238//1 244//1 245//1 239//1
f 239//1 245//1 246//1 240//1
f 240//1 246//1 247//1 241//1
f 241//1 247//1 248//1 242//1
f 61//1 7//1 73//1 243//1
f 243//1 73//1 72//1 244//1
f 244//1 72//1 71//1 245//1
f 245//1 71//1 70//1 246//1
f 246//1 70//1 69//1 247//1
f 247//1 69//1 68//1 248//1
