# Blender 4.1.0
# www.blender.org
mtllib iron_ore.mtl
o Full
v 1.000000 1.000000 -1.000000
v 1.000000 -1.000000 -1.000000
v 1.000000 1.000000 1.000000
v 1.000000 -1.000000 1.000000
v -1.000000 1.000000 -1.000000
v -1.000000 -1.000000 -1.000000
v -1.000000 1.000000 1.000000
v -1.000000 -1.000000 1.000000
v 0.102546 0.144627 -1.000000
v 0.102546 0.144627 -1.079806
v 0.634304 0.144627 -1.000000
v 0.634304 0.144627 -1.079806
v 0.102546 0.670087 -1.000000
v 0.102546 0.670087 -1.079806
v 0.634304 0.670087 -1.000000
v 0.634304 0.670087 -1.079806
v -0.673684 -0.371930 -1.000000
v -0.673684 -0.371930 -1.050449
v -0.179160 -0.371930 -1.000000
v -0.179160 -0.371930 -1.050449
v -0.673684 0.085402 -1.000000
v -0.673684 0.085402 -1.050449
v -0.179160 0.085402 -1.000000
v -0.179160 0.085402 -1.050449
v 0.123332 -0.743085 -1.000000
v 0.123332 -0.743085 -1.068019
v 0.612348 -0.743085 -1.000000
v 0.612348 -0.743085 -1.068019
v 0.123332 -0.320782 -1.000000
v 0.123332 -0.320782 -1.068019
v 0.612348 -0.320782 -1.000000
v 0.612348 -0.320782 -1.068019
v 1.000000 -0.073779 0.601238
v 1.145713 -0.073779 0.601238
v 1.000000 0.567028 0.601238
v 1.145713 0.567028 0.601238
v 1.000000 -0.073779 -0.007372
v 1.145713 -0.073779 -0.007372
v 1.000000 0.567028 -0.007372
v 1.145713 0.567028 -0.007372
v 1.000000 -0.718859 -0.318765
v 1.104997 -0.718859 -0.318765
v 1.000000 -0.277414 -0.318765
v 1.104997 -0.277414 -0.318765
v 1.000000 -0.718859 -0.727398
v 1.104997 -0.718859 -0.727398
v 1.000000 -0.277414 -0.727398
v 1.104997 -0.277414 -0.727398
v -1.000000 -0.032323 -0.756640
v -1.050652 -0.032323 -0.756640
v -1.000000 0.729892 -0.756640
v -1.050652 0.729892 -0.756640
v -1.000000 -0.032323 0.018859
v -1.050652 -0.032323 0.018859
v -1.000000 0.729892 0.018859
v -1.050652 0.729892 0.018859
v -1.000001 -0.317528 0.347309
v -1.063341 -0.317528 0.347309
v -1.000001 -0.053322 0.347309
v -1.063341 -0.053322 0.347309
v -1.000001 -0.317528 0.592610
v -1.063341 -0.317528 0.592610
v -1.000001 -0.053322 0.592610
v -1.063341 -0.053322 0.592610
v -1.000000 -0.722248 -0.368537
v -1.061886 -0.722248 -0.368537
v -1.000000 -0.417391 -0.368537
v -1.061886 -0.417391 -0.368537
v -1.000000 -0.722248 -0.051664
v -1.061886 -0.722248 -0.051664
v -1.000000 -0.417391 -0.051664
v -1.061886 -0.417391 -0.051664
v -0.057697 0.035232 1.000000
v -0.057697 0.035232 1.133531
v -0.671664 0.035232 1.000000
v -0.671664 0.035232 1.133531
v -0.057697 0.649296 1.000000
v -0.057697 0.649296 1.133531
v -0.671664 0.649296 1.000000
v -0.671664 0.649296 1.133531
v 0.604245 -0.548512 0.999999
v 0.604245 -0.548512 1.062415
v 0.228782 -0.548512 0.999999
v 0.228782 -0.548512 1.062415
v 0.604245 -0.154828 0.999999
v 0.604245 -0.154828 1.062415
v 0.228782 -0.154828 0.999999
v 0.228782 -0.154828 1.062415
v 0.586458 0.269235 1.000000
v 0.586458 0.269235 1.072919
v 0.356221 0.269235 1.000000
v 0.356221 0.269235 1.072919
v 0.586458 0.516176 1.000000
v 0.586458 0.516176 1.072919
v 0.356221 0.516176 1.000000
v 0.356221 0.516176 1.072919
v -0.110934 1.000000 0.082834
v -0.110934 1.070158 0.082834
v -0.110934 1.000000 -0.648992
v -0.110934 1.070158 -0.648992
v 0.550130 1.000000 0.082834
v 0.550130 1.070158 0.082834
v 0.550130 1.000000 -0.648992
v 0.550130 1.070158 -0.648992
v -0.572423 1.000000 0.460291
v -0.572423 1.045117 0.460291
v -0.572423 1.000000 0.209812
v -0.572423 1.045117 0.209812
v -0.321784 1.000000 0.460291
v -0.321784 1.045117 0.460291
v -0.321784 1.000000 0.209812
v -0.321784 1.045117 0.209812
v -0.201645 1.000000 0.672321
v -0.201645 1.045410 0.672321
v -0.201645 1.000000 0.479614
v -0.201645 1.045410 0.479614
v 0.014961 1.000000 0.672321
v 0.014961 1.045410 0.672321
v 0.014961 1.000000 0.479614
v 0.014961 1.045410 0.479614
vn -0.0000 1.0000 -0.0000
vn -0.0000 -0.0000 1.0000
vn -1.0000 -0.0000 -0.0000
vn -0.0000 -1.0000 -0.0000
vn 1.0000 -0.0000 -0.0000
vn -0.0000 -0.0000 -1.0000
vt 0.625000 0.500000
vt 0.875000 0.500000
vt 0.875000 0.750000
vt 0.625000 0.750000
vt 0.375000 0.750000
vt 0.625000 1.000000
vt 0.375000 1.000000
vt 0.375000 0.000000
vt 0.625000 0.000000
vt 0.625000 0.250000
vt 0.375000 0.250000
vt 0.125000 0.500000
vt 0.375000 0.500000
vt 0.125000 0.750000
s 0
usemtl Material
f 1/1/1 5/2/1 7/3/1 3/4/1
f 4/5/2 3/4/2 7/6/2 8/7/2
f 8/8/3 7/9/3 5/10/3 6/11/3
f 6/12/4 2/13/4 4/5/4 8/14/4
f 2/13/5 1/1/5 3/4/5 4/5/5
f 6/11/6 5/10/6 1/1/6 2/13/6
usemtl Material.001
f 9/8/4 10/9/4 12/10/4 11/11/4
f 11/11/5 12/10/5 16/1/5 15/13/5
f 15/13/1 16/1/1 14/4/1 13/5/1
f 13/5/3 14/4/3 10/6/3 9/7/3
f 11/12/2 15/13/2 13/5/2 9/14/2
f 16/1/6 12/2/6 10/3/6 14/4/6
f 17/8/4 18/9/4 20/10/4 19/11/4
f 19/11/5 20/10/5 24/1/5 23/13/5
f 23/13/1 24/1/1 22/4/1 21/5/1
f 21/5/3 22/4/3 18/6/3 17/7/3
f 19/12/2 23/13/2 21/5/2 17/14/2
f 24/1/6 20/2/6 18/3/6 22/4/6
f 25/8/4 26/9/4 28/10/4 27/11/4
f 27/11/5 28/10/5 32/1/5 31/13/5
f 31/13/1 32/1/1 30/4/1 29/5/1
f 29/5/3 30/4/3 26/6/3 25/7/3
f 27/12/2 31/13/2 29/5/2 25/14/2
f 32/1/6 28/2/6 26/3/6 30/4/6
f 33/8/2 34/9/2 36/10/2 35/11/2
f 35/11/1 36/10/1 40/1/1 39/13/1
f 39/13/6 40/1/6 38/4/6 37/5/6
f 37/5/4 38/4/4 34/6/4 33/7/4
f 35/12/3 39/13/3 37/5/3 33/14/3
f 40/1/5 36/2/5 34/3/5 38/4/5
f 41/8/2 42/9/2 44/10/2 43/11/2
f 43/11/1 44/10/1 48/1/1 47/13/1
f 47/13/6 48/1/6 46/4/6 45/5/6
f 45/5/4 46/4/4 42/6/4 41/7/4
f 43/12/3 47/13/3 45/5/3 41/14/3
f 48/1/5 44/2/5 42/3/5 46/4/5
f 49/8/6 50/9/6 52/10/6 51/11/6
f 51/11/1 52/10/1 56/1/1 55/13/1
f 55/13/2 56/1/2 54/4/2 53/5/2
f 53/5/4 54/4/4 50/6/4 49/7/4
f 51/12/5 55/13/5 53/5/5 49/14/5
f 56/1/3 52/2/3 50/3/3 54/4/3
f 57/8/6 58/9/6 60/10/6 59/11/6
f 59/11/1 60/10/1 64/1/1 63/13/1
f 63/13/2 64/1/2 62/4/2 61/5/2
f 61/5/4 62/4/4 58/6/4 57/7/4
f 59/12/5 63/13/5 61/5/5 57/14/5
f 64/1/3 60/2/3 58/3/3 62/4/3
f 65/8/6 66/9/6 68/10/6 67/11/6
f 67/11/1 68/10/1 72/1/1 71/13/1
f 71/13/2 72/1/2 70/4/2 69/5/2
f 69/5/4 70/4/4 66/6/4 65/7/4
f 67/12/5 71/13/5 69/5/5 65/14/5
f 72/1/3 68/2/3 66/3/3 70/4/3
f 73/8/4 74/9/4 76/10/4 75/11/4
f 75/11/3 76/10/3 80/1/3 79/13/3
f 79/13/1 80/1/1 78/4/1 77/5/1
f 77/5/5 78/4/5 74/6/5 73/7/5
f 75/12/6 79/13/6 77/5/6 73/14/6
f 80/1/2 76/2/2 74/3/2 78/4/2
f 81/8/4 82/9/4 84/10/4 83/11/4
f 83/11/3 84/10/3 88/1/3 87/13/3
f 87/13/1 88/1/1 86/4/1 85/5/1
f 85/5/5 86/4/5 82/6/5 81/7/5
f 83/12/6 87/13/6 85/5/6 81/14/6
f 88/1/2 84/2/2 82/3/2 86/4/2
f 89/8/4 90/9/4 92/10/4 91/11/4
f 91/11/3 92/10/3 96/1/3 95/13/3
f 95/13/1 96/1/1 94/4/1 93/5/1
f 93/5/5 94/4/5 90/6/5 89/7/5
f 91/12/6 95/13/6 93/5/6 89/14/6
f 96/1/2 92/2/2 90/3/2 94/4/2
f 97/8/3 98/9/3 100/10/3 99/11/3
f 99/11/6 100/10/6 104/1/6 103/13/6
f 103/13/5 104/1/5 102/4/5 101/5/5
f 101/5/2 102/4/2 98/6/2 97/7/2
f 99/12/4 103/13/4 101/5/4 97/14/4
f 104/1/1 100/2/1 98/3/1 102/4/1
f 105/8/3 106/9/3 108/10/3 107/11/3
f 107/11/6 108/10/6 112/1/6 111/13/6
f 111/13/5 112/1/5 110/4/5 109/5/5
f 109/5/2 110/4/2 106/6/2 105/7/2
f 107/12/4 111/13/4 109/5/4 105/14/4
f 112/1/1 108/2/1 106/3/1 110/4/1
f 113/8/3 114/9/3 116/10/3 115/11/3
f 115/11/6 116/10/6 120/1/6 119/13/6
f 119/13/5 120/1/5 118/4/5 117/5/5
f 117/5/2 118/4/2 114/6/2 113/7/2
f 115/12/4 119/13/4 117/5/4 113/14/4
f 120/1/1 116/2/1 114/3/1 118/4/1
o Empty
v 1.000000 1.000000 -1.000000
v 1.000000 -1.000000 -1.000000
v 1.000000 1.000000 1.000000
v 1.000000 -1.000000 1.000000
v -1.000000 1.000000 -1.000000
v -1.000000 -1.000000 -1.000000
v -1.000000 1.000000 1.000000
v -1.000000 -1.000000 1.000000
vn -0.0000 1.0000 -0.0000
vn -0.0000 -0.0000 1.0000
vn -1.0000 -0.0000 -0.0000
vn -0.0000 -1.0000 -0.0000
vn 1.0000 -0.0000 -0.0000
vn -0.0000 -0.0000 -1.0000
vt 0.625000 0.500000
vt 0.875000 0.500000
vt 0.875000 0.750000
vt 0.625000 0.750000
vt 0.375000 0.750000
vt 0.625000 1.000000
vt 0.375000 1.000000
vt 0.375000 0.000000
vt 0.625000 0.000000
vt 0.625000 0.250000
vt 0.375000 0.250000
vt 0.125000 0.500000
vt 0.375000 0.500000
vt 0.125000 0.750000
s 0
usemtl Material
f 121/15/7 125/16/7 127/17/7 123/18/7
f 124/19/8 123/18/8 127/20/8 128/21/8
f 128/22/9 127/23/9 125/24/9 126/25/9
f 126/26/10 122/27/10 124/19/10 128/28/10
f 122/27/11 121/15/11 123/18/11 124/19/11
f 126/25/12 125/24/12 121/15/12 122/27/12
