# Blender 4.1.1
# www.blender.org
mtllib iron.mtl
o Iron
v 1.569551 -1.302995 -0.845721
v 1.569551 -3.302995 -0.845721
v 1.569551 -1.302995 1.154279
v 1.569551 -3.302995 1.154279
v -0.430449 -1.302995 -0.845721
v -0.430449 -3.302995 -0.845721
v -0.430449 -1.302995 1.154279
v -0.430449 -3.302995 1.154279
v 1.000000 -0.067390 -1.000000
v 1.000000 -2.067390 -1.000000
v 1.000000 -0.067390 1.000000
v 1.000000 -2.067390 1.000000
v -1.000000 -0.067390 -1.000000
v -1.000000 -2.067390 -1.000000
v -1.000000 -0.067390 1.000000
v -1.000000 -2.067390 1.000000
v -0.052567 -0.319839 -2.616040
v -0.052567 -2.319839 -2.616040
v -0.052567 -0.319839 -0.616040
v -0.052567 -2.319839 -0.616040
v -2.052567 -0.319839 -2.616040
v -2.052567 -2.319839 -2.616040
v -2.052567 -0.319839 -0.616040
v -2.052567 -2.319839 -0.616040
v 1.574661 -1.983490 -2.307786
v 1.574661 -3.983490 -2.307786
v 1.574661 -1.983490 -0.307786
v 1.574661 -3.983490 -0.307786
v -0.425339 -1.983490 -2.307786
v -0.425339 -3.983490 -2.307786
v -0.425339 -1.983490 -0.307786
v -0.425339 -3.983490 -0.307786
v 0.694961 -2.464808 0.488420
v 0.694961 -4.464808 0.488420
v 0.694961 -2.464808 2.488420
v 0.694961 -4.464808 2.488420
v -1.305039 -2.464808 0.488420
v -1.305039 -4.464808 0.488420
v -1.305039 -2.464808 2.488420
v -1.305039 -4.464808 2.488420
v 0.714481 -0.300952 0.491182
v 0.714481 -2.300952 0.491182
v 0.714481 -0.300952 2.491182
v 0.714481 -2.300952 2.491182
v -1.285519 -0.300952 0.491182
v -1.285519 -2.300952 0.491182
v -1.285519 -0.300952 2.491182
v -1.285519 -2.300952 2.491182
v 0.211208 -2.602675 -0.929671
v 0.211208 -4.602675 -0.929671
v 0.211208 -2.602675 1.070329
v 0.211208 -4.602675 1.070329
v -1.788792 -2.602675 -0.929671
v -1.788792 -4.602675 -0.929671
v -1.788792 -2.602675 1.070329
v -1.788792 -4.602675 1.070329
vn -0.0000 1.0000 -0.0000
vn -0.0000 -0.0000 1.0000
vn -1.0000 -0.0000 -0.0000
vn -0.0000 -1.0000 -0.0000
vn 1.0000 -0.0000 -0.0000
vn -0.0000 -0.0000 -1.0000
vt 0.625000 0.500000
vt 0.875000 0.500000
vt 0.875000 0.750000
vt 0.625000 0.750000
vt 0.375000 0.750000
vt 0.625000 1.000000
vt 0.375000 1.000000
vt 0.375000 0.000000
vt 0.625000 0.000000
vt 0.625000 0.250000
vt 0.375000 0.250000
vt 0.125000 0.500000
vt 0.375000 0.500000
vt 0.125000 0.750000
s 0
usemtl Material
f 1/1/1 5/2/1 7/3/1 3/4/1
f 4/5/2 3/4/2 7/6/2 8/7/2
f 8/8/3 7/9/3 5/10/3 6/11/3
f 6/12/4 2/13/4 4/5/4 8/14/4
f 2/13/5 1/1/5 3/4/5 4/5/5
f 6/11/6 5/10/6 1/1/6 2/13/6
f 9/1/1 13/2/1 15/3/1 11/4/1
f 12/5/2 11/4/2 15/6/2 16/7/2
f 16/8/3 15/9/3 13/10/3 14/11/3
f 14/12/4 10/13/4 12/5/4 16/14/4
f 10/13/5 9/1/5 11/4/5 12/5/5
f 14/11/6 13/10/6 9/1/6 10/13/6
f 17/1/1 21/2/1 23/3/1 19/4/1
f 20/5/2 19/4/2 23/6/2 24/7/2
f 24/8/3 23/9/3 21/10/3 22/11/3
f 22/12/4 18/13/4 20/5/4 24/14/4
f 18/13/5 17/1/5 19/4/5 20/5/5
f 22/11/6 21/10/6 17/1/6 18/13/6
f 25/1/1 29/2/1 31/3/1 27/4/1
f 28/5/2 27/4/2 31/6/2 32/7/2
f 32/8/3 31/9/3 29/10/3 30/11/3
f 30/12/4 26/13/4 28/5/4 32/14/4
f 26/13/5 25/1/5 27/4/5 28/5/5
f 30/11/6 29/10/6 25/1/6 26/13/6
f 33/1/1 37/2/1 39/3/1 35/4/1
f 36/5/2 35/4/2 39/6/2 40/7/2
f 40/8/3 39/9/3 37/10/3 38/11/3
f 38/12/4 34/13/4 36/5/4 40/14/4
f 34/13/5 33/1/5 35/4/5 36/5/5
f 38/11/6 37/10/6 33/1/6 34/13/6
f 41/1/1 45/2/1 47/3/1 43/4/1
f 44/5/2 43/4/2 47/6/2 48/7/2
f 48/8/3 47/9/3 45/10/3 46/11/3
f 46/12/4 42/13/4 44/5/4 48/14/4
f 42/13/5 41/1/5 43/4/5 44/5/5
f 46/11/6 45/10/6 41/1/6 42/13/6
f 49/1/1 53/2/1 55/3/1 51/4/1
f 52/5/2 51/4/2 55/6/2 56/7/2
f 56/8/3 55/9/3 53/10/3 54/11/3
f 54/12/4 50/13/4 52/5/4 56/14/4
f 50/13/5 49/1/5 51/4/5 52/5/5
f 54/11/6 53/10/6 49/1/6 50/13/6
