# Blender v2.79 (sub 0) OBJ File: 'gemses.blend'
# www.blender.org
mtllib orion.mtl
o Crystal.002_CrystalMesh.010
v 0.165445 -0.425607 0.308485
v -0.744588 -0.176270 -0.183676
v 0.259270 -0.264325 -0.526997
v -0.433599 -0.070825 -0.142247
v -0.372152 0.433770 -0.195576
v 0.047998 0.126958 -0.337928
v 0.080531 0.094185 0.045350
v -0.300323 0.176887 -0.006060
v -0.756683 -0.199130 -0.262022
v 0.618657 0.182815 -0.002439
v 0.178977 -0.162734 -0.599885
v 0.688056 -0.131657 -0.281042
v -0.083954 0.250747 -0.189098
v 0.630950 0.568861 -0.146203
v 0.502561 0.059930 0.172781
v 0.108454 0.009241 0.193946
v -0.283051 -0.043185 -0.744821
v -0.569622 0.186536 -0.493299
v 0.216806 -0.488396 -0.468000
v -0.036811 0.360061 0.157380
vn -0.0767 0.7915 -0.6064
vn -0.1419 0.9333 0.3298
vn -0.4644 0.0505 0.8842
vn 0.9796 0.0420 0.1966
vn -0.2727 -0.9602 0.0596
vn -0.3424 -0.7425 -0.5758
vn 0.5739 -0.8124 0.1036
vn 0.4007 -0.3035 -0.8645
vn 0.5302 -0.1760 -0.8294
vn 0.5109 0.2025 -0.8355
vn -0.8451 0.5185 0.1300
vn 0.7381 0.2147 0.6396
vn 0.3582 0.3221 -0.8763
vn 0.0892 0.2102 0.9736
vn -0.4048 -0.8591 0.3132
vn 0.8753 -0.1978 0.4413
vn 0.7754 -0.4023 0.4868
vn 0.1974 -0.3482 -0.9164
vn 0.5433 -0.3085 -0.7808
vn -0.6238 0.3940 0.6750
vn -0.6965 -0.0892 -0.7120
vn 0.2383 0.4719 0.8488
vn -0.8974 0.4411 0.0098
vn -0.0295 0.7211 -0.6922
usemtl Material
s off
f 18//1 5//1 14//1
f 5//2 20//2 14//2
f 20//3 2//3 1//3
f 14//4 10//4 12//4
f 9//5 19//5 1//5
f 9//6 17//6 19//6
f 1//7 19//7 12//7
f 11//8 3//8 19//8
f 3//9 11//9 12//9
f 11//10 14//10 12//10
f 2//11 5//11 18//11
f 15//12 10//12 14//12
f 11//13 17//13 14//13
usemtl Material.003
f 20//14 1//14 15//14
f 2//15 9//15 1//15
f 10//16 15//16 12//16
f 15//17 1//17 12//17
f 17//18 11//18 19//18
f 19//19 3//19 12//19
f 5//20 2//20 20//20
f 9//21 18//21 17//21
f 20//22 15//22 14//22
f 9//23 2//23 18//23
f 17//24 18//24 14//24
o Crystal.006_CrystalMesh.008
v 0.132511 0.064693 -2.163807
v 0.101449 0.027549 -2.070091
v 0.075892 -0.084687 -2.213306
v -0.220705 -0.045711 -2.114215
v 0.004339 0.070191 -1.969722
v -0.065285 -0.193012 -2.130050
v 0.030360 -0.060838 -1.968319
v -0.089867 0.109655 -1.982337
v -0.059327 -0.075709 -2.074198
v -0.079719 -0.161090 -2.091749
v -0.118624 0.056812 -2.241448
v 0.153145 0.048184 -2.069442
v 0.061861 0.090601 -2.188999
v 0.086189 -0.122230 -2.059883
v -0.068378 -0.062246 -2.045833
v -0.005082 0.037514 -2.167853
v -0.027651 0.109013 -2.203825
v -0.020588 -0.071748 -2.190886
v -0.014446 -0.221375 -2.112496
v -0.172036 -0.021282 -2.067731
vn 0.2150 0.2960 -0.9307
vn -0.6266 -0.6983 0.3459
vn -0.4934 -0.4399 -0.7503
vn 0.3119 0.9451 0.0971
vn 0.5649 0.1209 0.8163
vn -0.1875 -0.4331 -0.8816
vn 0.9299 -0.2695 -0.2505
vn 0.7397 -0.2557 0.6225
vn 0.2839 0.9512 0.1207
vn 0.9170 -0.3688 -0.1518
vn 0.7393 -0.6409 -0.2065
vn 0.3339 0.8932 0.3011
vn 0.1930 0.9798 0.0514
vn 0.2493 0.1526 -0.9563
vn 0.3822 0.1569 -0.9107
vn -0.1398 -0.0172 0.9900
vn -0.4661 -0.2592 0.8459
vn 0.3274 -0.6803 0.6557
vn -0.3048 -0.5879 0.7493
vn -0.4638 -0.4385 0.7698
vn -0.4879 -0.4506 0.7476
vn -0.6745 -0.0568 0.7361
vn -0.7405 0.6698 -0.0544
vn -0.0395 -0.5761 -0.8164
vn -0.5481 -0.7324 0.4039
vn -0.4526 0.8822 -0.1297
usemtl None
s off
f 37//25 33//25 31//25
f 30//26 24//26 26//26
f 24//27 31//27 26//27
f 33//28 32//28 21//28
f 25//29 27//29 32//29
f 31//30 23//30 26//30
f 21//31 32//31 23//31
f 27//32 34//32 32//32
f 33//33 28//33 32//33
f 32//34 34//34 23//34
f 34//35 39//35 23//35
f 28//36 25//36 32//36
f 37//37 28//37 33//37
f 31//38 33//38 23//38
f 33//39 21//39 23//39
f 25//40 28//40 27//40
f 28//41 40//41 27//41
f 34//42 27//42 39//42
f 27//43 30//43 39//43
f 27//44 40//44 30//44
f 40//45 24//45 30//45
f 40//46 28//46 24//46
f 28//47 31//47 24//47
f 23//48 39//48 26//48
f 39//49 30//49 26//49
f 28//50 37//50 31//50
o Cube.001_Cube.003
v -2.368912 -0.185834 -3.890123
v -2.368912 0.614166 -3.890123
v -2.368912 -0.185834 -3.898685
v -2.368912 0.614166 -3.898685
v -1.568912 -0.185834 -3.890123
v -1.568912 0.614166 -3.890123
v -1.568912 -0.185834 -3.898685
v -1.568912 0.614166 -3.898685
v -2.368912 -0.185834 -3.890123
v -2.298421 -0.082853 -3.819632
v -2.298421 0.511185 -3.819632
v -2.368912 0.614166 -3.890123
v -2.298421 -0.082853 -3.969176
v -2.368912 -0.185834 -3.898685
v -2.368912 0.614166 -3.898685
v -2.298421 0.511185 -3.969176
v -1.639403 -0.082853 -3.819632
v -1.568912 -0.185834 -3.890123
v -1.568912 0.614166 -3.890123
v -1.639403 0.511185 -3.819632
v -1.568912 -0.185834 -3.898685
v -1.639403 -0.082853 -3.969176
v -1.639403 0.511185 -3.969176
v -1.568912 0.614166 -3.898685
vn 0.0000 1.0000 0.0000
vn 1.0000 0.0000 0.0000
vn -0.7071 0.0000 -0.7071
vn -1.0000 0.0000 0.0000
vn 0.7071 0.0000 0.7071
vn 0.0000 0.0000 1.0000
vn 0.0000 0.0000 -1.0000
vn 0.7071 0.0000 -0.7071
vn -0.7071 0.0000 0.7071
vn 0.0000 -0.5648 -0.8252
vn 0.0000 -0.5648 0.8252
vn -0.0000 0.5648 0.8252
vn 0.0000 0.5648 -0.8252
vn 0.0000 -1.0000 0.0000
usemtl None
s off
f 48//51 64//51 55//51 44//51 42//51 52//51 59//51 46//51
f 47//52 48//52 46//52 45//52
f 55//53 56//53 53//53 54//53 43//53 44//53
f 41//54 42//54 44//54 43//54
f 59//55 60//55 57//55 58//55 45//55 46//55
f 57//56 60//56 51//56 50//56
f 53//57 56//57 63//57 62//57
f 48//58 47//58 61//58 62//58 63//58 64//58
f 49//59 50//59 51//59 52//59 42//59 41//59
f 53//60 62//60 61//60 54//60
f 57//61 50//61 49//61 58//61
f 59//62 52//62 51//62 60//62
f 63//63 56//63 55//63 64//63
f 43//64 54//64 61//64 47//64 45//64 58//64 49//64 41//64
o Plane.001
v 2.351953 -3.984445 0.984231
v 3.766167 -2.570231 0.984231
v 2.351953 -3.984445 -1.015769
v 3.766167 -2.570231 -1.015769
vn -0.7071 0.7071 0.0000
usemtl Material.006
s off
f 65//65 66//65 68//65 67//65
o Plane
v -0.625001 5.222744 0.984231
v 1.374999 5.222744 0.984231
v -0.625001 5.222744 -1.015769
v 1.374999 5.222744 -1.015769
vn 0.0000 1.0000 0.0000
usemtl Material.002
s off
f 69//66 70//66 72//66 71//66
o Cube_Cube.001
v -3.471609 0.446401 -0.361821
v -3.512024 0.346372 -0.316026
v -3.560079 0.448662 -0.284981
v -3.601028 0.126078 0.272041
v -3.583874 0.168538 0.379926
v -3.649084 0.228368 0.303086
v -3.472501 0.444196 -0.362782
v -3.560970 0.446456 -0.285942
v -3.455346 0.486656 -0.254896
v -3.584764 0.166332 0.378965
v -3.544350 0.266362 0.333170
v -3.649975 0.226163 0.302125
v -2.883543 0.208807 -0.361821
v -2.818332 0.148977 -0.284981
v -2.923957 0.108777 -0.316026
v -2.995807 -0.069056 0.379926
v -3.012962 -0.111516 0.272041
v -2.907337 -0.071317 0.303086
v -2.884434 0.206601 -0.362782
v -2.867279 0.249061 -0.254896
v -2.819223 0.146771 -0.285942
v -2.996698 -0.071262 0.378965
v -2.908228 -0.073523 0.302125
v -2.956283 0.028768 0.333170
vn -0.3473 -0.8597 -0.3746
vn -0.9272 0.3746 0.0000
vn 0.1403 0.3473 -0.9272
vn 0.9272 -0.3746 0.0000
vn 0.3473 0.8597 0.3746
vn -0.6548 -0.0795 -0.7516
vn -0.8169 -0.4806 0.3190
vn 0.4158 -0.5121 -0.7516
vn 0.2538 -0.9131 0.3190
vn 0.5564 -0.5105 0.6556
vn -0.9012 -0.3430 -0.2649
vn 0.7549 -0.0193 -0.6556
vn -0.7548 0.0193 0.6556
vn -0.5564 0.5105 -0.6556
vn 0.4100 -0.8728 -0.2649
vn -0.1464 -0.3623 -0.9205
vn -0.3448 -0.8535 0.3907
vn -0.1403 -0.3473 0.9272
vn -0.4100 0.8728 0.2649
vn 0.3448 0.8535 -0.3907
vn 0.1464 0.3623 0.9205
vn 0.9012 0.3430 0.2649
vn -0.2538 0.9131 -0.3190
vn -0.4158 0.5121 0.7516
vn 0.8169 0.4806 -0.3190
vn 0.6548 0.0795 0.7516
usemtl Material.001
s off
f 87//67 89//67 76//67 74//67
f 93//68 95//68 90//68 86//68
f 94//69 82//69 77//69 88//69
f 75//70 78//70 84//70 80//70
f 81//71 83//71 96//71 92//71
f 73//72 74//72 75//72
f 76//73 77//73 78//73
f 85//74 86//74 87//74
f 88//75 89//75 90//75
f 79//76 73//76 75//76 80//76
f 74//77 76//77 78//77 75//77
f 77//78 82//78 84//78 78//78
f 85//79 91//79 93//79 86//79
f 94//80 88//80 90//80 95//80
f 89//81 87//81 86//81 90//81
f 73//82 85//82 87//82 74//82
f 88//83 77//83 76//83 89//83
f 79//84 91//84 85//84 73//84
usemtl Material.004
f 83//85 81//85 80//85 84//85
f 91//86 79//86 81//86 92//86
f 82//87 94//87 96//87 83//87
f 95//88 93//88 92//88 96//88
usemtl Material.001
f 79//89 80//89 81//89
f 82//90 83//90 84//90
f 91//91 92//91 93//91
f 94//92 95//92 96//92
