# Blender 4.1.1
# www.blender.org
mtllib mushroom.mtl
o Mushroom1
v 0.400000 1.479237 -0.400000
v 0.400000 0.010640 -0.400000
v 0.400000 1.479237 0.400000
v 0.400000 0.010640 0.400000
v -0.400000 1.479237 -0.400000
v -0.400000 0.010640 -0.400000
v -0.400000 1.479237 0.400000
v -0.400000 0.010640 0.400000
v 0.858846 0.653128 0.858846
v -0.858846 0.653128 0.858846
v 0.858846 0.653128 -0.858846
v -0.858846 0.653128 -0.858846
v 0.858846 1.726686 0.858846
v -0.858846 1.726686 0.858846
v 0.858846 1.726686 -0.858846
v -0.858846 1.726686 -0.858846
v -1.026906 1.406944 0.957048
v -1.026906 1.806944 0.957048
v -1.026906 1.406944 0.557048
v -1.026906 1.806944 0.557048
v -0.626906 1.406944 0.957048
v -0.626906 1.806944 0.957048
v -0.626906 1.406944 0.557048
v -0.626906 1.806944 0.557048
v 0.504148 0.686698 0.904932
v 0.504148 1.086698 0.904932
v 0.504148 0.686698 0.504932
v 0.504148 1.086698 0.504932
v 0.904148 0.686698 0.904932
v 0.904148 1.086698 0.904932
v 0.904148 0.686698 0.504932
v 0.904148 1.086698 0.504932
v 0.530020 0.949983 0.191729
v 0.530020 1.349983 0.191729
v 0.530020 0.949983 -0.208271
v 0.530020 1.349983 -0.208271
v 0.930020 0.949983 0.191729
v 0.930020 1.349983 0.191729
v 0.930020 0.949983 -0.208271
v 0.930020 1.349983 -0.208271
v 0.517986 0.566397 -0.374795
v 0.517986 0.966397 -0.374795
v 0.517986 0.566397 -0.774795
v 0.517986 0.966397 -0.774795
v 0.917986 0.566397 -0.374795
v 0.917986 0.966397 -0.374795
v 0.917986 0.566397 -0.774795
v 0.917986 0.966397 -0.774795
v -0.364563 1.337880 -0.600546
v -0.364563 1.737880 -0.600546
v -0.364563 1.337880 -1.000546
v -0.364563 1.737880 -1.000546
v 0.035437 1.337880 -0.600546
v 0.035437 1.737880 -0.600546
v 0.035437 1.337880 -1.000546
v 0.035437 1.737880 -1.000546
v -0.046994 0.561012 -0.579583
v -0.046994 0.961012 -0.579583
v -0.046994 0.561012 -0.979583
v -0.046994 0.961012 -0.979583
v 0.353006 0.561012 -0.579583
v 0.353006 0.961012 -0.579583
v 0.353006 0.561012 -0.979583
v 0.353006 0.961012 -0.979583
v -0.936812 0.524210 0.341502
v -0.936812 0.924210 0.341502
v -0.936812 0.524210 -0.058498
v -0.936812 0.924210 -0.058498
v -0.536812 0.524210 0.341502
v -0.536812 0.924210 0.341502
v -0.536812 0.524210 -0.058498
v -0.536812 0.924210 -0.058498
v -0.887913 1.029179 -0.218142
v -0.887913 1.429179 -0.218142
v -0.887913 1.029179 -0.618142
v -0.887913 1.429179 -0.618142
v -0.487913 1.029179 -0.218142
v -0.487913 1.429179 -0.218142
v -0.487913 1.029179 -0.618142
v -0.487913 1.429179 -0.618142
v 0.239904 1.481606 0.720968
v 0.239904 1.881606 0.720968
v 0.239904 1.481606 0.320968
v 0.239904 1.881606 0.320968
v 0.639904 1.481606 0.720968
v 0.639904 1.881606 0.720968
v 0.639904 1.481606 0.320968
v 0.639904 1.881606 0.320968
v -0.617836 1.397383 0.101250
v -0.617836 1.797383 0.101250
v -0.617836 1.397383 -0.298750
v -0.617836 1.797383 -0.298750
v -0.217836 1.397383 0.101250
v -0.217836 1.797383 0.101250
v -0.217836 1.397383 -0.298750
v -0.217836 1.797383 -0.298750
vn -0.0000 -0.0000 1.0000
vn -1.0000 -0.0000 -0.0000
vn -0.0000 -1.0000 -0.0000
vn 1.0000 -0.0000 -0.0000
vn -0.0000 -0.0000 -1.0000
vn -0.0000 -0.4856 0.8742
vn -0.8742 -0.4856 -0.0000
vn 0.8742 -0.4856 -0.0000
vn -0.0000 -0.4856 -0.8742
vn -0.0000 1.0000 -0.0000
vt 0.375000 0.750000
vt 0.625000 0.750000
vt 0.625000 1.000000
vt 0.375000 1.000000
vt 0.375000 0.000000
vt 0.625000 0.000000
vt 0.625000 0.250000
vt 0.375000 0.250000
vt 0.125000 0.500000
vt 0.375000 0.500000
vt 0.125000 0.750000
vt 0.625000 0.500000
vt 0.875000 0.500000
vt 0.875000 0.750000
s 0
usemtl Mushroom
f 1/12/6 5/7/6 12/7/6 11/12/6
f 3/2/7 1/12/7 11/12/7 9/2/7
f 5/7/8 7/6/8 10/6/8 12/7/8
f 7/3/9 3/2/9 9/2/9 10/3/9
f 9/2/4 11/12/4 15/12/4 13/2/4
f 15/12/10 16/13/10 14/14/10 13/2/10
f 11/12/5 12/7/5 16/7/5 15/12/5
f 10/3/1 9/2/1 13/2/1 14/3/1
f 12/7/2 10/6/2 14/6/2 16/7/2
usemtl MushroomStem
f 4/1/1 3/2/1 7/3/1 8/4/1
f 8/5/2 7/6/2 5/7/2 6/8/2
f 6/9/3 2/10/3 4/1/3 8/11/3
f 2/10/4 1/12/4 3/2/4 4/1/4
f 6/8/5 5/7/5 1/12/5 2/10/5
usemtl MushroomDot
f 17/5/2 18/6/2 20/7/2 19/8/2
f 19/8/5 20/7/5 24/12/5 23/10/5
f 23/10/4 24/12/4 22/2/4 21/1/4
f 21/1/1 22/2/1 18/3/1 17/4/1
f 19/9/3 23/10/3 21/1/3 17/11/3
f 24/12/10 20/13/10 18/14/10 22/2/10
f 25/5/2 26/6/2 28/7/2 27/8/2
f 27/8/5 28/7/5 32/12/5 31/10/5
f 31/10/4 32/12/4 30/2/4 29/1/4
f 29/1/1 30/2/1 26/3/1 25/4/1
f 27/9/3 31/10/3 29/1/3 25/11/3
f 32/12/10 28/13/10 26/14/10 30/2/10
f 33/5/2 34/6/2 36/7/2 35/8/2
f 35/8/5 36/7/5 40/12/5 39/10/5
f 39/10/4 40/12/4 38/2/4 37/1/4
f 37/1/1 38/2/1 34/3/1 33/4/1
f 35/9/3 39/10/3 37/1/3 33/11/3
f 40/12/10 36/13/10 34/14/10 38/2/10
f 41/5/2 42/6/2 44/7/2 43/8/2
f 43/8/5 44/7/5 48/12/5 47/10/5
f 47/10/4 48/12/4 46/2/4 45/1/4
f 45/1/1 46/2/1 42/3/1 41/4/1
f 43/9/3 47/10/3 45/1/3 41/11/3
f 48/12/10 44/13/10 42/14/10 46/2/10
f 49/5/2 50/6/2 52/7/2 51/8/2
f 51/8/5 52/7/5 56/12/5 55/10/5
f 55/10/4 56/12/4 54/2/4 53/1/4
f 53/1/1 54/2/1 50/3/1 49/4/1
f 51/9/3 55/10/3 53/1/3 49/11/3
f 56/12/10 52/13/10 50/14/10 54/2/10
f 57/5/2 58/6/2 60/7/2 59/8/2
f 59/8/5 60/7/5 64/12/5 63/10/5
f 63/10/4 64/12/4 62/2/4 61/1/4
f 61/1/1 62/2/1 58/3/1 57/4/1
f 59/9/3 63/10/3 61/1/3 57/11/3
f 64/12/10 60/13/10 58/14/10 62/2/10
f 65/5/2 66/6/2 68/7/2 67/8/2
f 67/8/5 68/7/5 72/12/5 71/10/5
f 71/10/4 72/12/4 70/2/4 69/1/4
f 69/1/1 70/2/1 66/3/1 65/4/1
f 67/9/3 71/10/3 69/1/3 65/11/3
f 72/12/10 68/13/10 66/14/10 70/2/10
f 73/5/2 74/6/2 76/7/2 75/8/2
f 75/8/5 76/7/5 80/12/5 79/10/5
f 79/10/4 80/12/4 78/2/4 77/1/4
f 77/1/1 78/2/1 74/3/1 73/4/1
f 75/9/3 79/10/3 77/1/3 73/11/3
f 80/12/10 76/13/10 74/14/10 78/2/10
f 81/5/2 82/6/2 84/7/2 83/8/2
f 83/8/5 84/7/5 88/12/5 87/10/5
f 87/10/4 88/12/4 86/2/4 85/1/4
f 85/1/1 86/2/1 82/3/1 81/4/1
f 83/9/3 87/10/3 85/1/3 81/11/3
f 88/12/10 84/13/10 82/14/10 86/2/10
f 89/5/2 90/6/2 92/7/2 91/8/2
f 91/8/5 92/7/5 96/12/5 95/10/5
f 95/10/4 96/12/4 94/2/4 93/1/4
f 93/1/1 94/2/1 90/3/1 89/4/1
f 91/9/3 95/10/3 93/1/3 89/11/3
f 96/12/10 92/13/10 90/14/10 94/2/10
