# Blender 4.1.1
# www.blender.org
mtllib oreon-structure.mtl
o OreonGround1
v -0.280904 -0.373629 0.149493
v 0.015433 0.357547 0.519141
v 0.059193 -0.050666 0.024110
v 0.553883 -0.241198 -0.269827
v -0.465038 0.120692 0.170589
v 0.071634 0.406701 -0.023685
v 0.570117 -0.352112 -0.035043
v -0.029663 0.792244 0.247155
v -0.050037 -0.071733 -0.359307
v 0.380093 -0.229483 -0.424871
v 0.354793 0.291720 -0.254627
v 0.198441 -0.604760 0.555279
v -0.131821 -1.054368 0.024381
v 0.108578 -0.235348 -0.411348
v -0.170286 -0.035793 -0.392591
v -0.434426 -0.285102 -0.083804
v 0.262546 -0.326803 0.635476
v 0.110614 0.082632 0.614538
v 0.044779 0.247893 -0.608372
v 0.498606 -0.241449 0.386230
v -1.723112 -0.425607 0.587066
v -2.633146 -0.176270 0.094905
v -1.629287 -0.264325 -0.248416
v -2.260710 0.433770 0.083005
v -2.645241 -0.199130 0.016559
v -1.269901 0.182815 0.276142
v -1.709580 -0.162734 -0.321304
v -1.200502 -0.131657 -0.002461
v -1.257608 0.568861 0.132378
v -1.385997 0.059930 0.451362
v -2.171608 -0.043185 -0.466240
v -2.458179 0.186536 -0.214718
v -1.671751 -0.488396 -0.189419
v -1.925369 0.360061 0.435961
v -1.058665 0.082438 1.499939
v -1.020503 -0.032187 2.528938
v -1.053471 -0.540331 1.928331
v -0.887995 0.029553 2.217039
v -0.555551 -0.187956 2.216629
v -0.806618 0.091688 2.135889
v -0.522956 -0.324547 2.196615
v -1.254787 -0.158023 2.178182
v -1.361703 0.032797 1.956758
v -0.758031 -0.224826 1.888390
v -0.870000 0.037507 2.262781
v -0.794806 0.303869 2.280580
v -0.834070 -0.080619 1.730412
v -0.770516 0.653733 1.986759
v -0.682188 0.078800 2.226452
v -1.517744 -0.208151 2.092404
v -0.969566 -0.799264 2.076787
v -0.982085 -0.153628 2.229111
v -1.016367 0.304076 2.236660
v -1.204975 0.333311 1.830244
vn -0.8233 0.2293 -0.5192
vn -0.8281 0.2516 -0.5009
vn -0.7466 0.5299 -0.4021
vn 0.4165 0.7830 -0.4620
vn 0.7041 0.2816 -0.6519
vn 0.6611 0.1849 -0.7271
vn -0.0378 -0.3815 -0.9236
vn -0.2577 -0.3938 -0.8823
vn -0.3762 -0.3632 -0.8524
vn -0.5692 -0.3298 -0.7532
vn -0.8825 -0.2958 0.3656
vn -0.6914 -0.2790 0.6664
vn -0.6102 -0.1451 0.7788
vn -0.6067 0.0649 0.7923
vn -0.6569 0.3498 0.6679
vn 0.6777 0.4393 0.5897
vn 0.6977 0.4333 0.5705
vn 0.8625 0.4670 0.1950
vn 0.9346 0.3469 0.0789
vn 0.9480 0.3081 0.0800
vn 0.6435 -0.6739 -0.3629
vn 0.4920 -0.6316 -0.5992
vn -0.0342 -0.4616 -0.8864
vn 0.7057 -0.6929 0.1478
vn 0.8001 -0.5327 0.2758
vn 0.7383 -0.3386 0.5833
vn -0.4870 -0.1366 0.8627
vn 0.6485 0.2769 0.7090
vn -0.0767 0.7915 -0.6064
vn -0.1419 0.9333 0.3298
vn -0.4644 0.0505 0.8842
vn 0.9796 0.0420 0.1966
vn -0.2727 -0.9602 0.0596
vn -0.3424 -0.7425 -0.5758
vn 0.5739 -0.8124 0.1036
vn 0.4007 -0.3035 -0.8645
vn 0.5302 -0.1760 -0.8294
vn 0.5109 0.2025 -0.8355
vn -0.8451 0.5185 0.1300
vn 0.7381 0.2147 0.6396
vn 0.3582 0.3221 -0.8763
vn 0.0892 0.2102 0.9736
vn -0.4048 -0.8591 0.3132
vn 0.8753 -0.1978 0.4413
vn 0.7754 -0.4023 0.4868
vn 0.1974 -0.3482 -0.9164
vn 0.5433 -0.3085 -0.7808
vn -0.6238 0.3940 0.6750
vn -0.6965 -0.0892 -0.7120
vn 0.2383 0.4719 0.8488
vn -0.8974 0.4411 0.0098
vn -0.0295 0.7211 -0.6922
vn -0.2803 0.7006 -0.6562
vn -0.6344 0.6921 0.3442
vn -0.1662 0.6481 0.7432
vn -0.1264 0.6431 0.7553
vn 0.8170 0.3365 0.4683
vn 0.9707 0.2373 -0.0388
vn 0.8517 0.1054 -0.5132
vn 0.7600 0.1546 -0.6313
vn -0.8203 0.2178 -0.5288
vn 0.4553 -0.4548 -0.7654
vn -0.2860 -0.5447 -0.7884
vn -0.5726 -0.4679 -0.6732
vn -0.7133 0.5929 0.3737
vn -0.6657 0.4942 0.5591
vn -0.4837 -0.4681 0.7396
vn 0.2795 -0.4737 0.8352
vn 0.5604 0.0124 0.8281
vn 0.5899 0.1848 0.7861
vn 0.6387 -0.4418 -0.6300
vn 0.6952 -0.3319 -0.6376
vn 0.5847 -0.4390 -0.6822
vn -0.5951 -0.5361 -0.5987
s 0
usemtl Oreon
f 15//1 16//1 19//1
f 16//2 5//2 19//2
f 5//3 8//3 19//3
f 8//4 11//4 19//4
f 11//5 4//5 19//5
f 4//6 10//6 19//6
f 10//7 14//7 19//7
f 14//8 13//8 19//8
f 13//9 15//9 19//9
f 13//10 16//10 15//10
f 13//11 5//11 16//11
f 13//12 12//12 5//12
f 12//13 18//13 5//13
f 18//14 2//14 5//14
f 2//15 8//15 5//15
f 2//16 18//16 8//16
f 18//17 20//17 8//17
f 20//18 11//18 8//18
f 20//19 4//19 11//19
f 20//20 7//20 4//20
f 7//21 13//21 4//21
f 13//22 10//22 4//22
f 13//23 14//23 10//23
f 7//24 12//24 13//24
f 7//25 20//25 12//25
f 20//26 17//26 12//26
f 17//27 18//27 12//27
f 17//28 20//28 18//28
f 32//29 24//29 29//29
f 24//30 34//30 29//30
f 34//31 22//31 21//31
f 29//32 26//32 28//32
f 25//33 33//33 21//33
f 25//34 31//34 33//34
f 21//35 33//35 28//35
f 27//36 23//36 33//36
f 23//37 27//37 28//37
f 27//38 29//38 28//38
f 22//39 24//39 32//39
f 30//40 26//40 29//40
f 27//41 31//41 29//41
f 34//42 21//42 30//42
f 22//43 25//43 21//43
f 26//44 30//44 28//44
f 30//45 21//45 28//45
f 31//46 27//46 33//46
f 33//47 23//47 28//47
f 24//48 22//48 34//48
f 25//49 32//49 31//49
f 34//50 30//50 29//50
f 25//51 22//51 32//51
f 31//52 32//52 29//52
f 35//53 54//53 48//53
f 54//54 53//54 48//54
f 53//55 36//55 48//55
f 36//56 46//56 48//56
f 46//57 39//57 48//57
f 39//58 41//58 48//58
f 41//59 47//59 48//59
f 47//60 35//60 48//60
f 50//61 54//61 35//61
f 47//62 51//62 35//62
f 51//63 37//63 35//63
f 37//64 50//64 35//64
f 50//65 53//65 54//65
f 50//66 36//66 53//66
f 50//67 51//67 36//67
f 51//68 41//68 36//68
f 41//69 39//69 36//69
f 39//70 46//70 36//70
f 51//71 44//71 41//71
f 44//72 47//72 41//72
f 44//73 51//73 47//73
f 37//74 51//74 50//74
o OreonGround2
v -0.224284 0.193368 0.572427
v -0.593563 0.292328 0.101204
v 0.373574 0.228504 -0.112063
v -0.191980 0.054391 0.785902
v 0.310965 0.982070 -0.063337
v -0.373067 0.605423 0.549585
v 0.667504 0.128188 0.074457
v -0.349654 -0.329886 0.421699
v 0.454605 0.751343 0.099541
v -0.645835 0.192289 -0.542608
v -0.344895 -0.476460 -0.018574
v 0.344556 0.315725 -0.032602
v -0.594380 0.275670 -0.469408
v -0.278112 -0.244674 0.215481
v 0.317498 -0.515561 0.369582
v 0.832652 -0.120253 0.471334
v 0.052096 -0.180555 -0.227515
v -0.231052 0.465688 0.476280
v 0.603037 0.078995 0.178774
v -0.116050 0.702873 -0.289814
v -2.125223 -0.503093 1.147100
v -0.872103 0.139934 0.980347
v -1.850896 -0.022885 0.617981
v -1.913181 0.154266 1.321590
v -2.134808 0.461449 1.295905
v -1.601586 -0.094224 0.652410
v -1.403800 -0.585694 0.361855
v -1.742519 0.682261 1.397827
v -1.854825 0.639880 0.544125
v -1.864304 0.275433 0.224060
v -2.138978 0.041031 0.502704
v -1.579869 0.514087 1.273690
v -2.030561 -0.223793 1.594682
v -1.937711 0.461192 0.848010
v -1.848024 0.712523 0.596340
v -1.235641 -0.333404 0.817603
v -2.556989 0.058257 0.845053
v -1.469382 0.977110 1.081314
v -2.347940 0.347567 0.616167
v -1.830936 -0.332181 1.011638
v -0.972793 -0.082194 2.978935
v -1.393363 0.240392 2.901084
v -0.941817 0.448207 2.694003
v -1.449829 0.019048 2.378924
v -1.013644 0.397234 2.724662
v -1.048005 0.454172 2.607854
v -1.343935 0.187807 2.586337
v -1.192411 0.365557 2.435128
v -0.955623 0.147891 2.804823
v -1.577604 -0.002591 2.399801
v -1.387905 0.192001 2.868907
v -1.067108 0.259682 2.847135
v -1.017499 0.152329 2.313982
v -1.056329 0.020599 2.725883
v -1.059682 -0.240534 2.838802
v -1.142067 -0.119308 2.638446
v -1.231572 0.310218 2.279509
v -1.414002 -0.195412 2.443790
v -1.061117 0.238961 2.809956
v -1.421472 0.255284 3.050989
v 0.136934 -0.066945 1.765371
v 0.399954 -0.100002 1.983797
v -0.013324 -0.135360 2.009757
v 0.249638 -0.349291 2.303614
v -0.331052 0.172092 1.879552
v -0.268544 0.271206 2.685798
v -0.248250 -0.132325 2.176299
v -0.345548 0.075286 2.680130
v -0.014927 -0.242935 1.880005
v 0.024206 0.053652 1.839586
v -0.293027 0.134779 2.319989
v 0.270993 -0.339507 1.697407
v 0.325660 0.300984 2.416809
v 0.343183 0.425174 2.119093
v 0.338358 0.478598 2.255497
v -0.265667 0.208380 2.720320
v 0.352885 0.159039 2.283639
v -0.026426 0.289927 2.519363
v 0.347242 0.252531 2.098519
v 0.072281 0.679473 2.149457
vn -0.5232 0.8500 -0.0615
vn 0.2653 0.6608 0.7021
vn 0.8877 0.3167 -0.3342
vn 0.5571 0.0996 -0.8244
vn 0.4183 0.0932 -0.9035
vn -0.4609 0.7289 -0.5063
vn -0.6395 0.7612 -0.1074
vn 0.3869 0.0544 -0.9205
vn -0.8716 -0.0790 0.4838
vn 0.3313 0.4618 0.8228
vn 0.3476 0.4914 0.7986
vn -0.8065 0.5910 -0.0161
vn 0.9280 0.3244 -0.1831
vn 0.5742 -0.5649 -0.5926
vn 0.4940 -0.1463 -0.8571
vn 0.3901 -0.0470 -0.9196
vn -0.8452 0.5342 -0.0144
vn 0.0343 -0.6068 -0.7941
vn -0.9348 -0.3399 0.1031
vn -0.9439 -0.3060 0.1242
vn -0.8728 -0.0956 0.4787
vn -0.1242 -0.6553 0.7451
vn 0.1863 -0.4655 0.8652
vn 0.5648 -0.5867 -0.5803
vn 0.2834 -0.7771 -0.5620
vn -0.2332 -0.9234 0.3049
vn -0.6289 -0.1660 -0.7596
vn -0.6361 -0.1406 -0.7587
vn -0.4552 0.5871 -0.6694
vn 0.4771 0.5595 -0.6777
vn 0.5706 0.4869 -0.6614
vn 0.6109 0.2043 -0.7649
vn -0.4771 -0.3818 -0.7915
vn -0.5584 -0.5075 -0.6562
vn -0.5718 -0.6837 -0.4534
vn -0.8141 -0.3994 0.4214
vn -0.7834 0.1444 0.6045
vn -0.7530 0.6454 0.1280
vn -0.6006 0.7977 0.0547
vn -0.5890 0.8079 0.0191
vn 0.5602 0.3069 0.7694
vn -0.5256 0.7994 0.2911
vn 0.5131 -0.6038 0.6100
vn 0.7828 -0.6199 0.0543
vn 0.4561 0.0481 0.8886
vn 0.3052 -0.8764 0.3726
vn 0.3253 -0.8316 0.4501
vn -0.4005 0.3143 0.8607
vn 0.4347 0.4064 0.8037
vn -0.1728 0.9448 0.2784
vn -0.4969 0.8673 -0.0295
vn -0.6473 0.7549 -0.1056
vn -0.6882 0.7158 -0.1184
vn -0.7435 -0.5413 0.3926
vn -0.6054 -0.6427 0.4696
vn -0.2824 -0.5442 0.7900
vn 0.9971 -0.0187 0.0737
vn 0.9211 -0.3435 -0.1831
vn 0.9780 -0.1674 -0.1248
vn 0.9879 -0.0917 -0.1254
vn 0.5417 0.6076 -0.5809
vn 0.4962 0.6583 -0.5660
vn -0.2506 0.9303 -0.2678
vn -0.0559 -0.2848 -0.9570
vn -0.1165 -0.2416 -0.9634
vn -0.1033 -0.3037 -0.9471
vn -0.0517 -0.2970 -0.9535
vn 0.4701 -0.7243 -0.5044
vn 0.6456 0.7186 -0.2586
vn 0.3336 0.4540 -0.8262
vn 0.0175 0.4587 -0.8884
vn -0.7783 0.6277 -0.0168
vn 0.2480 0.6884 0.6816
vn 0.2934 0.6311 0.7180
vn 0.9884 0.0573 0.1409
vn 0.9926 0.0547 0.1086
vn 0.9940 0.1094 -0.0077
vn 0.4182 0.4081 -0.8115
vn 0.8015 0.2290 -0.5524
vn -0.1517 0.1683 -0.9740
vn -0.7384 -0.5629 -0.3714
vn -0.9487 -0.3115 -0.0548
vn -0.9306 0.3650 0.0273
vn -0.5839 -0.4455 -0.6787
vn -0.7640 0.2835 0.5796
vn 0.3459 0.4640 0.8155
vn 0.4721 -0.2045 0.8575
vn 0.9135 -0.1710 0.3691
vn 0.9367 -0.1784 0.3012
vn 0.8687 -0.4948 0.0226
vn -0.3353 -0.9417 -0.0270
vn -0.4043 -0.9143 0.0229
vn -0.4416 -0.8564 0.2676
vn 0.2549 -0.4165 0.8727
s 0
usemtl Oreon
f 74//75 60//75 59//75
f 60//76 63//76 59//76
f 63//77 61//77 59//77
f 61//78 57//78 59//78
f 57//79 74//79 59//79
f 64//80 67//80 74//80
f 67//81 60//81 74//81
f 57//82 64//82 74//82
f 56//83 58//83 60//83
f 58//84 70//84 60//84
f 70//85 63//85 60//85
f 67//86 56//86 60//86
f 70//87 61//87 63//87
f 70//88 71//88 61//88
f 71//89 57//89 61//89
f 71//90 64//90 57//90
f 56//91 67//91 64//91
f 71//92 65//92 64//92
f 65//93 62//93 64//93
f 62//94 56//94 64//94
f 62//95 58//95 56//95
f 62//96 69//96 58//96
f 69//97 70//97 58//97
f 69//98 71//98 70//98
f 69//99 65//99 71//99
f 69//100 62//100 65//100
f 85//101 91//101 84//101
f 91//102 93//102 84//102
f 93//103 89//103 84//103
f 89//104 92//104 84//104
f 92//105 76//105 84//105
f 76//106 81//106 84//106
f 81//107 85//107 84//107
f 81//108 91//108 85//108
f 81//109 75//109 91//109
f 75//110 87//110 91//110
f 87//111 79//111 91//111
f 79//112 93//112 91//112
f 79//113 92//113 93//113
f 92//114 89//114 93//114
f 82//115 76//115 92//115
f 79//116 82//116 92//116
f 87//117 90//117 76//117
f 90//118 81//118 76//118
f 82//119 87//119 76//119
f 90//120 75//120 81//120
f 90//121 87//121 75//121
f 82//122 79//122 87//122
f 95//123 97//123 114//123
f 97//124 100//124 114//124
f 100//125 102//125 114//125
f 102//126 111//126 114//126
f 111//127 104//127 114//127
f 104//128 112//128 114//128
f 112//129 109//129 114//129
f 109//130 95//130 114//130
f 103//131 97//131 95//131
f 109//132 107//132 95//132
f 107//133 103//133 95//133
f 103//134 107//134 97//134
f 107//135 111//135 97//135
f 111//136 100//136 97//136
f 111//137 102//137 100//137
f 107//138 98//138 111//138
f 98//139 104//139 111//139
f 98//140 112//140 104//140
f 98//141 107//141 112//141
f 107//142 109//142 112//142
f 129//143 128//143 134//143
f 128//144 115//144 134//144
f 115//145 119//145 134//145
f 119//146 120//146 134//146
f 120//147 129//147 134//147
f 120//148 127//148 129//148
f 127//149 131//149 129//149
f 131//150 116//150 129//150
f 116//151 128//151 129//151
f 126//152 115//152 128//152
f 116//153 126//153 128//153
f 126//154 119//154 115//154
f 123//155 121//155 119//155
f 121//156 122//156 119//156
f 122//157 120//157 119//157
f 126//158 123//158 119//158
f 122//159 130//159 120//159
f 130//160 127//160 120//160
f 130//161 118//161 127//161
f 118//162 131//162 127//162
f 118//163 116//163 131//163
f 118//164 126//164 116//164
f 118//165 123//165 126//165
f 118//166 121//166 123//166
f 118//167 122//167 121//167
f 118//168 130//168 122//168
